<?xml version="1.0" encoding="utf-8"?>
<!-- Generator: Adobe Illustrator 27.8.0, SVG Export Plug-In . SVG Version: 6.00 Build 0)  -->
<svg version="1.1" id="Layer_1" xmlns="http://www.w3.org/2000/svg" xmlns:xlink="http://www.w3.org/1999/xlink" x="0px" y="0px"
	 viewBox="0 0 283.5 283.5" style="enable-background:new 0 0 283.5 283.5;" xml:space="preserve">
<style type="text/css">
	.st0{fill:#146EF5;}
	.st1{fill-rule:evenodd;clip-rule:evenodd;fill:#FFFFFF;}
</style>
<g>
	<rect class="st0" width="283.5" height="283.5"/>
	<path class="st1" d="M228.7,91.2C228.7,91.1,228.7,91.1,228.7,91.2l-48,0c0,0,0,0,0,0l-18.4,35.5c0,0,0,0,0,0l-0.6,0c0,0,0,0,0,0
		l2.1-35.4c0,0,0,0,0,0h-35.1c0,0,0,0,0,0c-0.2,0.4-9.6,22.5-17.7,35.7c0,0,0,0,0,0l-0.5,0c0,0,0,0,0,0l0.5-35.6c0,0,0,0,0,0h-44
		c0,0,0,0,0,0v43.3c0,0,0,0,0,0h38.2c0,0,0,0,0,0c-14.1,14.8-37.7,16.4-38.3,16.4c0,0,0,0,0,0v41.3c0,0,0,0,0,0
		c38-3.5,64.6-18.6,82.2-41.9c0,0,0,0,0,0h0.9c0,0,0,0,0,0l-21,40.4c0,0,0,0,0,0h48.6c0,0,0,0,0,0L228.7,91.2z"/>
</g>
</svg>
